<svg width="285" height="116" viewBox="0 0 285 116" fill="none" xmlns="http://www.w3.org/2000/svg">
<rect x="7.5" y="7.5" width="270" height="101" rx="27.5" fill="#282727" stroke="black" stroke-width="15"/>
<path d="M214 87.959L230.5 76.6652V99.2528L214 87.959Z" fill="#D9D9D9"/>
<path d="M214 67.5164L230.5 56.2225V78.8102L214 67.5164Z" fill="#D9D9D9"/>
<path d="M214 47.0738L230.5 35.78V58.3676L214 47.0738Z" fill="#D9D9D9"/>
<path d="M214 28.041L230.5 16.7472V39.3348L214 28.041Z" fill="#D9D9D9"/>
<path d="M109.625 62.875L109.156 67.0156L105.516 66.125L106.734 63.5781L109.625 62.875ZM115.016 63.9062L112.516 64.625C112.432 63.5208 112.193 62.6094 111.797 61.8906C111.411 61.1615 110.865 60.6198 110.156 60.2656C109.771 60.0781 109.146 59.9062 108.281 59.75C107.427 59.5833 106.339 59.4479 105.016 59.3438L103.812 69.6562L111.797 69.2344L109.797 73.7188L103.422 72.3594L102.016 82.8125L107.875 82.8906L109.922 79.8906L113.188 79.7031L113.266 84.6875L98.2031 83.8438L99.0781 67.5312L101.172 67.6406L101.516 66.2969L99.1094 66.2656L99.2344 64.375L101.516 64.5469L101.75 62.875H99.3125L99.3906 61.0312L101.672 61.2031L101.984 59.7656L99.4688 59.6406L99.625 56.7969C100.656 56.8802 101.693 56.9635 102.734 57.0469C103.776 57.1198 104.818 57.1875 105.859 57.25C107.099 57.3958 108.203 57.6094 109.172 57.8906C110.141 58.1615 110.969 58.5052 111.656 58.9219C112.562 59.4635 113.292 60.151 113.844 60.9844C114.406 61.8177 114.797 62.7917 115.016 63.9062ZM139.406 69.8906C139.406 70.4219 139.214 70.8802 138.828 71.2656C138.453 71.6406 138 71.8281 137.469 71.8281C136.917 71.8281 136.448 71.6406 136.062 71.2656C135.688 70.8802 135.5 70.4219 135.5 69.8906C135.5 69.3698 135.693 68.9219 136.078 68.5469C136.474 68.1615 136.938 67.9688 137.469 67.9688C137.99 67.9688 138.443 68.1615 138.828 68.5469C139.214 68.9219 139.406 69.3698 139.406 69.8906ZM140.406 83.2344L138.375 85.4062L128.719 74.0625C127.906 75.6562 127.219 76.9479 126.656 77.9375C126.094 78.9167 125.667 79.6146 125.375 80.0312C124.521 81.25 123.651 82.1615 122.766 82.7656C121.88 83.3698 120.984 83.6719 120.078 83.6719C119.141 83.6719 118.208 83.3438 117.281 82.6875C116.365 82.0208 115.458 81.026 114.562 79.7031L115.375 78.8594C115.906 79.6094 116.448 80.1771 117 80.5625C117.562 80.9375 118.135 81.125 118.719 81.125C119.458 81.125 120.229 80.8177 121.031 80.2031C121.833 79.5781 122.672 78.6458 123.547 77.4062C123.807 77.0417 124.208 76.3958 124.75 75.4688C125.292 74.5312 125.979 73.3177 126.812 71.8281L123.656 68.0938L125.031 66.9219L123.969 65.6562L122.594 66.8438L121.344 65.4219L122.859 64.2188L121.828 62.9844L120.391 64.25L119.359 63.0625L120.953 61.8281L120.156 60.5938L118.406 62L117.312 60.7188L122.859 56.7969L129.438 66.5312L134.547 56.125L137.219 58.1562L131.156 69.3125L140.406 83.2344ZM121.578 72.3906C121.578 72.9219 121.385 73.3802 121 73.7656C120.615 74.151 120.156 74.3438 119.625 74.3438C119.094 74.3438 118.635 74.151 118.25 73.7656C117.875 73.3802 117.688 72.9219 117.688 72.3906C117.688 71.8698 117.88 71.4167 118.266 71.0312C118.661 70.6458 119.115 70.4531 119.625 70.4531C120.146 70.4531 120.599 70.6458 120.984 71.0312C121.38 71.4167 121.578 71.8698 121.578 72.3906ZM151.562 58.9688C150.844 61.6979 150.24 64.0677 149.75 66.0781C149.271 68.0781 148.911 69.7188 148.672 71C148.297 73.0312 148.005 75.0833 147.797 77.1562C147.599 79.2292 147.484 81.3073 147.453 83.3906L143.734 83.8125C143.641 82.7708 143.568 81.7083 143.516 80.625C143.474 79.5312 143.453 78.4062 143.453 77.25C143.453 74.3542 143.599 71.2917 143.891 68.0625C144.182 64.8333 144.62 61.4427 145.203 57.8906L151.562 58.9688ZM149.125 62.3906L148.562 61.6719C147.833 62.8385 147.172 64.1198 146.578 65.5156C145.995 66.901 145.474 68.3958 145.016 70L146.438 70.6094C146.688 69.1615 147.036 67.7552 147.484 66.3906C147.932 65.0156 148.479 63.6823 149.125 62.3906ZM173.484 58.0781L173.141 60.5625C172.453 60.4375 171.771 60.3438 171.094 60.2812C170.417 60.2188 169.755 60.1875 169.109 60.1875C168.286 60.1875 167.453 60.2396 166.609 60.3438C165.776 60.4479 164.932 60.599 164.078 60.7969L165.562 83.9219L158.5 83L160.25 60.9844L159.188 61C158.052 61.0208 157.052 60.9688 156.188 60.8438C155.333 60.7188 154.625 60.5156 154.062 60.2344C153.281 59.8385 152.698 59.2917 152.312 58.5938C151.938 57.8958 151.75 57.0312 151.75 56V55.6094L152.797 55.25C152.839 56.4167 153.276 57.2917 154.109 57.875C154.953 58.4479 156.182 58.7344 157.797 58.7344C159.161 58.7344 161.188 58.5312 163.875 58.125C166.573 57.7188 168.604 57.5156 169.969 57.5156C170.688 57.5156 171.344 57.5677 171.938 57.6719C172.531 57.7656 173.047 57.901 173.484 58.0781ZM163.172 67.8906C163.172 67.5156 163.078 67.2344 162.891 67.0469C162.714 66.8594 162.438 66.7656 162.062 66.7656C161.688 66.7656 161.401 66.8594 161.203 67.0469C161.016 67.2344 160.922 67.5156 160.922 67.8906C160.922 68.276 161.016 68.5625 161.203 68.75C161.401 68.9271 161.688 69.0156 162.062 69.0156C162.438 69.0156 162.714 68.9271 162.891 68.75C163.078 68.5625 163.172 68.276 163.172 67.8906ZM163.438 72.5469C163.438 72.1615 163.297 71.8281 163.016 71.5469C162.745 71.2552 162.411 71.1094 162.016 71.1094C161.62 71.1094 161.281 71.2552 161 71.5469C160.719 71.8281 160.578 72.1615 160.578 72.5469C160.578 72.9531 160.719 73.2969 161 73.5781C161.281 73.8594 161.62 74 162.016 74C162.411 74 162.745 73.8594 163.016 73.5781C163.297 73.2969 163.438 72.9531 163.438 72.5469ZM163.094 77.4531C163.094 77.0885 163 76.8125 162.812 76.625C162.635 76.4375 162.359 76.3438 161.984 76.3438C161.609 76.3438 161.323 76.4375 161.125 76.625C160.938 76.8125 160.844 77.0885 160.844 77.4531C160.844 77.8281 160.938 78.1094 161.125 78.2969C161.323 78.474 161.609 78.5625 161.984 78.5625C162.359 78.5625 162.635 78.474 162.812 78.2969C163 78.1094 163.094 77.8281 163.094 77.4531Z" fill="white"/>
<path d="M195 13.68H79C79 20.9378 97 33 135.5 33C176.318 33 195 21.3467 195 13.68Z" fill="#D9D9D9" stroke="white"/>
<path d="M100.5 22.88L113.923 13.22H87.0766L100.5 22.88Z" fill="black"/>
<path d="M137 22.88L159.517 13.22H114.483L137 22.88Z" fill="black"/>
<path d="M174.5 22.88L187.923 13.22H161.077L174.5 22.88Z" fill="black"/>
<circle cx="246.5" cy="27.5" r="4.5" fill="#D9D9D9"/>
<circle cx="246.5" cy="43.5" r="4.5" fill="#D9D9D9"/>
<circle cx="246.5" cy="59.5" r="4.5" fill="#D9D9D9"/>
<circle cx="246.5" cy="75.5" r="4.5" fill="#D9D9D9"/>
<circle cx="246.5" cy="91.5" r="4.5" fill="#D9D9D9"/>
<rect x="45.1924" y="15" width="3.26923" height="86" fill="#D9D9D9"/>
<path d="M51.0769 49.8986H43.2308L38 85.7319H55L51.0769 49.8986Z" fill="#D9D9D9"/>
<rect x="15" y="66" width="32" height="1" fill="#D9D9D9"/>
<rect x="15" y="70" width="32" height="1" fill="#D9D9D9"/>
<rect x="15" y="62" width="32" height="1" fill="#D9D9D9"/>
<rect x="15" y="74" width="32" height="1" fill="#D9D9D9"/>
<rect x="15" y="78" width="32" height="1" fill="#D9D9D9"/>
<rect x="15" y="82" width="32" height="1" fill="#D9D9D9"/>
<rect x="16" y="86" width="32" height="1" fill="#D9D9D9"/>
<rect x="17" y="90" width="30" height="1" fill="#D9D9D9"/>
<rect x="21" y="94" width="26" height="1" fill="#D9D9D9"/>
<rect x="26" y="98" width="21" height="1" fill="#D9D9D9"/>
</svg>
