<svg width="285" height="116" viewBox="0 0 285 116" fill="none" xmlns="http://www.w3.org/2000/svg">
<rect x="7.5" y="7.5" width="270" height="101" rx="27.5" fill="#282727" stroke="black" stroke-width="15"/>
<rect x="104" y="15" width="10" height="5" fill="#D9D9D9"/>
<rect x="133" y="15" width="10" height="19" fill="#D9D9D9"/>
<rect x="162" y="15" width="10" height="5" fill="#D9D9D9"/>
<path d="M236 87.959L252.5 76.6652V99.2528L236 87.959Z" fill="#D9D9D9"/>
<path d="M236 67.5164L252.5 56.2226V78.8102L236 67.5164Z" fill="#D9D9D9"/>
<path d="M236 47.0738L252.5 35.78V58.3676L236 47.0738Z" fill="#D9D9D9"/>
<path d="M236 28.041L252.5 16.7472V39.3348L236 28.041Z" fill="#D9D9D9"/>
<path d="M214 87.959L230.5 76.6652V99.2528L214 87.959Z" fill="#D9D9D9"/>
<path d="M214 67.5164L230.5 56.2226V78.8102L214 67.5164Z" fill="#D9D9D9"/>
<path d="M214 47.0738L230.5 35.78V58.3676L214 47.0738Z" fill="#D9D9D9"/>
<path d="M214 28.041L230.5 16.7472V39.3348L214 28.041Z" fill="#D9D9D9"/>
<path d="M116.266 62.1875C116.266 64.1667 115.63 65.8438 114.359 67.2188C113.089 68.5938 111.469 69.2812 109.5 69.2812C108.219 69.2812 107.141 68.9896 106.266 68.4062C105.401 67.8229 104.74 66.9479 104.281 65.7812L103.25 81.1562L100.141 82L99.8281 68.25L97.3125 68.5625L97.0312 65.8594L99.75 65.5156L99.6719 62.7344L97.0312 62.9375L96.875 60.1406L99.5938 59.9844L99.5312 57.2656L96.7188 57.5938L96.75 54.75C99.4688 54.5938 101.635 54.474 103.25 54.3906C104.875 54.3073 105.953 54.2656 106.484 54.2656C107.943 54.2656 109.24 54.4115 110.375 54.7031C111.521 54.9948 112.51 55.4323 113.344 56.0156C114.312 56.6927 115.042 57.5469 115.531 58.5781C116.021 59.6094 116.266 60.8125 116.266 62.1875ZM113.109 62.5469C113.109 60.6615 112.542 59.25 111.406 58.3125C110.281 57.3646 108.589 56.8906 106.328 56.8906C106.12 56.8906 105.906 56.901 105.688 56.9219C105.469 56.9323 105.24 56.9427 105 56.9531L104.625 62.0625C105 61.1146 105.521 60.401 106.188 59.9219C106.865 59.4323 107.693 59.1875 108.672 59.1875C109.526 59.1875 110.25 59.4583 110.844 60C111.448 60.5312 111.75 61.2188 111.75 62.0625C111.75 62.6562 111.557 63.1667 111.172 63.5938C110.786 64.0104 110.302 64.2188 109.719 64.2188C109.333 64.2188 109.01 64.1406 108.75 63.9844C108.49 63.8177 108.292 63.5625 108.156 63.2188L108.5 63.25C108.906 63.2917 109.208 63.2292 109.406 63.0625C109.615 62.8854 109.719 62.6146 109.719 62.25C109.719 61.9479 109.63 61.7188 109.453 61.5625C109.276 61.4062 109.016 61.3281 108.672 61.3281C108.328 61.3281 108.026 61.4062 107.766 61.5625C107.516 61.7083 107.292 61.9271 107.094 62.2188C106.927 62.4688 106.802 62.75 106.719 63.0625C106.646 63.3646 106.609 63.6979 106.609 64.0625C106.609 64.9062 106.88 65.5938 107.422 66.125C107.964 66.6562 108.656 66.9219 109.5 66.9219C110.083 66.9219 110.604 66.8073 111.062 66.5781C111.521 66.349 111.911 66.0104 112.234 65.5625C112.526 65.1562 112.745 64.7031 112.891 64.2031C113.036 63.6927 113.109 63.1406 113.109 62.5469ZM138.969 76.7031C138.969 77.5781 138.646 78.3125 138 78.9062C137.354 79.5 136.391 79.9427 135.109 80.2344C134.37 80.401 133.339 80.5417 132.016 80.6562C130.693 80.7708 129.078 80.849 127.172 80.8906C125.432 80.9323 124.005 81 122.891 81.0938C121.786 81.1979 121 81.3438 120.531 81.5312L121.438 68.2812L119.266 68.1094L119.422 65.4375L121.656 65.3594L121.859 62.4219L119.531 62.25L119.688 59.625L122.047 59.7031L122.234 56.6094L119.812 56.3438L119.844 53.9219L128.781 54.5625L124.359 77.9688L125 77.9375C125.417 77.9167 125.922 77.9323 126.516 77.9844C127.109 78.026 127.786 78.0781 128.547 78.1406C129.37 78.2135 130.073 78.2708 130.656 78.3125C131.24 78.3438 131.714 78.3594 132.078 78.3594C133.724 78.3594 134.958 78.1302 135.781 77.6719C136.604 77.2031 137.016 76.5 137.016 75.5625C137.016 75.25 136.974 74.9167 136.891 74.5625C136.807 74.1979 136.682 73.8073 136.516 73.3906L137.688 72.75C138.115 73.5208 138.432 74.2344 138.641 74.8906C138.859 75.5469 138.969 76.151 138.969 76.7031ZM133.656 70.3438C133.656 70.875 133.464 71.3385 133.078 71.7344C132.693 72.1198 132.234 72.3125 131.703 72.3125C131.161 72.3125 130.698 72.1198 130.312 71.7344C129.927 71.3385 129.734 70.875 129.734 70.3438C129.734 69.8333 129.927 69.3906 130.312 69.0156C130.708 68.6302 131.172 68.4375 131.703 68.4375C132.224 68.4375 132.677 68.6302 133.062 69.0156C133.458 69.3906 133.656 69.8333 133.656 70.3438ZM163.625 80.2031L160.859 80.8438L158.984 75.1406L147.781 74.9844L144.984 82.5938L138.969 78.4531L150.734 54.3281L155.078 53.9531L163.625 80.2031ZM156.516 67.6875L153.578 57.1875L149.547 69.2812L156.516 67.6875ZM158.062 72.3906L157.156 69.6719L148.75 71.75L148.25 73.0156L158.062 72.3906ZM146.5 70.7188L145.938 70C145.188 71.25 144.521 72.5677 143.938 73.9531C143.354 75.3385 142.854 76.7969 142.438 78.3281L143.875 78.9375C144.083 77.5104 144.406 76.1146 144.844 74.75C145.292 73.375 145.844 72.0312 146.5 70.7188ZM167.031 58.4375C167.031 58.7812 166.943 59.0417 166.766 59.2188C166.599 59.3854 166.344 59.4688 166 59.4688C165.656 59.4688 165.396 59.3854 165.219 59.2188C165.052 59.0417 164.969 58.7812 164.969 58.4375C164.969 58.0938 165.052 57.8385 165.219 57.6719C165.396 57.4948 165.656 57.4062 166 57.4062C166.344 57.4062 166.599 57.4948 166.766 57.6719C166.943 57.8385 167.031 58.0938 167.031 58.4375ZM168.656 61.5156C168.656 61.8594 168.573 62.1198 168.406 62.2969C168.24 62.4635 167.979 62.5469 167.625 62.5469C167.292 62.5469 167.036 62.4635 166.859 62.2969C166.682 62.1198 166.594 61.8594 166.594 61.5156C166.594 61.1615 166.682 60.8958 166.859 60.7188C167.036 60.5417 167.292 60.4531 167.625 60.4531C167.979 60.4531 168.24 60.5417 168.406 60.7188C168.573 60.8958 168.656 61.1615 168.656 61.5156ZM170.5 64.7188C170.5 65.0729 170.411 65.3385 170.234 65.5156C170.068 65.6927 169.807 65.7812 169.453 65.7812C169.12 65.7812 168.865 65.6927 168.688 65.5156C168.51 65.3385 168.422 65.0729 168.422 64.7188C168.422 64.3854 168.51 64.1302 168.688 63.9531C168.865 63.776 169.12 63.6875 169.453 63.6875C169.807 63.6875 170.068 63.776 170.234 63.9531C170.411 64.1302 170.5 64.3854 170.5 64.7188ZM188 53.3281C186.99 53.4635 186.078 53.8177 185.266 54.3906C184.464 54.9531 183.755 55.7448 183.141 56.7656C183.703 56.474 184.214 56.2604 184.672 56.125C185.141 55.9792 185.547 55.9062 185.891 55.9062C186.057 55.9062 186.255 55.9219 186.484 55.9531C186.724 55.974 186.995 56.0052 187.297 56.0469L186.891 57.3125H186.609C184.995 57.3125 183.531 57.9896 182.219 59.3438C180.917 60.6875 179.766 62.7396 178.766 65.5C178.474 66.3125 178.255 66.9583 178.109 67.4375C177.964 67.9167 177.885 68.2135 177.875 68.3281C177.875 68.3281 177.823 69.375 177.719 71.4688C177.625 73.5625 177.474 76.7031 177.266 80.8906L174.594 81.4531L173.719 67.2344L167.031 55.8906L172.531 53.7656L176.922 65.1719C177.651 63.2135 178.318 61.5469 178.922 60.1719C179.536 58.7969 180.104 57.7031 180.625 56.8906C181.615 55.349 182.698 54.1927 183.875 53.4219C185.052 52.6406 186.323 52.25 187.688 52.25L188 53.3281ZM172.422 67.9219C172.422 68.2656 172.333 68.526 172.156 68.7031C171.979 68.8802 171.719 68.9688 171.375 68.9688C171.031 68.9688 170.771 68.8802 170.594 68.7031C170.427 68.526 170.344 68.2656 170.344 67.9219C170.344 67.5781 170.427 67.3229 170.594 67.1562C170.771 66.9792 171.031 66.8906 171.375 66.8906C171.719 66.8906 171.979 66.9792 172.156 67.1562C172.333 67.3229 172.422 67.5781 172.422 67.9219Z" fill="white"/>
<path d="M42 22.5C46.9977 22.5 50.5 26.0112 50.5 29.7061C50.4999 33.4008 46.9976 36.9121 42 36.9121C37.0024 36.9121 33.5001 33.4008 33.5 29.7061C33.5 26.0112 37.0023 22.5 42 22.5Z" stroke="white" stroke-width="5"/>
<path d="M42 78.0882C46.9977 78.0882 50.5 81.5995 50.5 85.2943C50.4999 88.9891 46.9976 92.5003 42 92.5003C37.0024 92.5003 33.5001 88.9891 33.5 85.2943C33.5 81.5995 37.0023 78.0882 42 78.0882Z" stroke="white" stroke-width="5"/>
<rect x="35" y="35" width="3" height="45" fill="white"/>
<rect x="47" y="35" width="3" height="45" fill="white"/>
</svg>
